<?xml version="1.0" encoding="utf-8"?>
<!-- Generator: Adobe Illustrator 23.0.4, SVG Export Plug-In . SVG Version: 6.00 Build 0)  -->
<svg version="1.1" id="Flag" xmlns="http://www.w3.org/2000/svg" xmlns:xlink="http://www.w3.org/1999/xlink" x="0px" y="0px"
	 viewBox="0 0 4320 2592" style="enable-background:new 0 0 4320 2592;" xml:space="preserve">
<style type="text/css">
	.st0{fill:#ED1C24;stroke:#000000;stroke-miterlimit:10;}
	.st1{fill:#FFFFFF;}
</style>
<rect x="2.5" y="-1.45" class="st0" width="4320" height="2592"/>
<g id="bottom">
	<rect x="1666.66" y="2161.56" class="st1" width="990.88" height="43.2"/>
	<rect x="1725.29" y="2093.41" class="st1" width="872.68" height="43.2"/>
	<rect x="1778.93" y="2025.26" class="st1" width="765.67" height="43.2"/>
	<rect x="1837.18" y="1957.12" class="st1" width="649.81" height="43.2"/>
	<rect x="1893.43" y="1888.97" class="st1" width="535.87" height="43.2"/>
</g>
<g id="top">
	<rect x="1758.03" y="673.11" class="st1" width="808.15" height="28.8"/>
	<rect x="1817.04" y="623.68" class="st1" width="691.56" height="28.8"/>
	<rect x="1878.15" y="574.25" class="st1" width="568.04" height="28.8"/>
	<rect x="1935.91" y="524.82" class="st1" width="453.95" height="28.8"/>
	<rect x="1993.74" y="475.39" class="st1" width="337.18" height="28.8"/>
	<rect x="2051.15" y="425.96" class="st1" width="222.29" height="28.8"/>
	<rect x="2109.27" y="376.53" class="st1" width="101.79" height="28.8"/>
	<path class="st1" d="M2160.16,364.53c23.96,0,0-44.95,0-44.95S2141.09,364.53,2160.16,364.53z"/>
	<path class="st1" d="M2124.48,785.36c0,0,16.58,9.77,36.36,9.77s37.91-8.79,37.91-8.79v-70.36h-74.27V785.36z"/>
</g>
<g id="Elephant">
	<path class="st1" d="M1530.7,1349.62c35.18-2.93,74.69-136.39,74.69-136.39s65.96,7.33,145.11-14.66
		c79.15-21.99,109.94-128.99,104.07-158.31c0,0-18.02-36.59-35.51-87.95c-17.25-50.64-18.73-123.13-18.73-133.39
		s-26.38-45.44-99.67-32.25c-73.29,13.19-89.41,71.82-89.41,71.82s23.45,17.59,68.89,19.06c45.44,1.47,85.02-17.59,92.35-11.73
		c7.33,5.86-42.51,21.99-82.08,27.85c-39.58,5.86-86.48-19.06-86.48-19.06s-14.66,20.52-52.77,58.63
		c-38.11,38.11-38.11,71.82-39.58,86.48c-1.47,14.66-23.45,76.22-33.71,142.18C1467.6,1227.89,1495.52,1315.91,1530.7,1349.62z
		 M1587.79,1025.61c5.86-11.73,21.99-27.85,35.18-16.12c0,0,17.59,1.47-17.59,29.32S1581.93,1037.33,1587.79,1025.61z"/>
	<path class="st1" d="M1628.35,1328.04c43.07-49.76,62.05-98.69,50.33-97.22s-61.56,0-61.56,0c-7.33,13.19-16.85,72.28-72.55,127.64
		c-30.88,30.69-112.4,83.34-71.41,69.35C1533.56,1407.21,1576.56,1387.88,1628.35,1328.04z"/>
	<path class="st1" d="M1501.31,1329.04c0,0-64.5,63.02-48.37,58.62c16.12-4.4,66.56-34.78,66.56-34.78L1501.31,1329.04z"/>
	<path class="st1" d="M1850.27,1684.22c-19.01-6.12-65.66,2.2-74.58-63.03c-9.21-67.34-7.7-104.28-39.14-169.78
		c-30.15-62.82-94.65-119.37-94.65-119.37s-9.26,14.41-28.32,30.42c-19.06,16.01-37.32,28.93-37.32,28.93s84.14,42.17,113.54,125.72
		c22.89,65.06,3.6,131.53,49.04,178.43c31.75,32.78,69.62,44.99,89.55,49.38c6.79,1.49,13.49-2.73,15.08-9.5
		c1.64-6.96,5.35-15.55,13.71-21.55C1870.95,1703.99,1873.02,1691.55,1850.27,1684.22z"/>
	<path class="st1" d="M2694.52,1332.04c0,0-64.5,56.54-94.65,119.37c-31.43,65.51-29.93,102.45-39.14,169.78
		c-8.93,65.23-55.58,56.91-74.58,63.03c-22.76,7.33-20.68,19.77-6.91,29.66c8.35,6,12.07,14.59,13.71,21.55
		c1.59,6.76,8.29,10.99,15.08,9.5c19.93-4.38,57.8-16.6,89.55-49.38c45.44-46.91,26.15-113.37,49.04-178.43
		c29.4-83.55,113.54-125.72,113.54-125.72s-18.26-12.93-37.32-28.93C2703.78,1346.45,2694.52,1332.04,2694.52,1332.04z"/>
	<path class="st1" d="M1929.33,1234.48c4.92-18.11-18.75-38.36-32.43-63.76c-13.68-25.41-24.42-74.27-24.42-74.27
		s-14.79,27.09-26.71,52.35c-9.81,20.8-22.72,26.32-33.71,40.97s30.78,48.37,60.42,77.69c29.64,29.32,26.8,66.69,20.2,72.56
		s-3.66-26.38-20.2-53.5c-16.54-27.12-39.9-30.78-39.9-30.78s-1.47,133.39,30.78,248.45c30.68,109.47,75.43,269.7,105.05,283.14
		c18.75,8.51,76.19,9.02,76.19,9.02s-81.07-170.26-98.42-328.81C1937.18,1385.21,1924.41,1252.6,1929.33,1234.48z"/>
	<path class="st1" d="M1953.76,1803.95c-7.82,2.93-29.56,53.5-13.68,59.61c25.96,9.98,33.78-4.89,42.78-4.89
		c9.01,0,21.71,10.66,35.39,9.68c13.68-0.98,23.45-0.89,25.41-12.61c1.95-11.73,0.26-43.97,0.26-43.97
		C2020.17,1815.68,1961.57,1801.02,1953.76,1803.95z"/>
	<path class="st1" d="M2102.25,1811.77c-19.54,1.95-43,0-43,0s-11.19,56.71,12.46,56.69c18.59-0.01,17.83-10.77,17.83-10.77
		s5.86,11.75,21.5,9.78s16.61-9.78,16.61-9.78s9.77,13.17,23.45,10.01c13.68-3.17,0-61.1,0-61.1S2121.79,1809.81,2102.25,1811.77z"
		/>
	<path class="st1" d="M1970.37,1194.18c-11.73,12.7-20.52,25.41-20.52,25.41s-6.84,141.69,27.85,299.02
		c34.69,157.33,78.16,270.75,86.48,275.57c15.64,9.06,73.7,0,73.7,0s-31.78-4.88-19.19-33.83c12.44-28.6,1.43-222.92-4.68-237.83
		c-8.79-21.5-63.91-73.18-84.04-147.56c-22.48-83.06-24.43-202.28-24.43-202.28S1982.1,1181.47,1970.37,1194.18z"/>
	<path class="st1" d="M1878.51,1060.3c3.91,14.66,11.73,66.45,23.45,87.95s27.36,43.97,39.09,43.97s11.73-6.84,33.22-19.54
		c21.5-12.7,27.36-12.7,21.5-31.27c-5.86-18.57-19.54-39.09-19.54-70.36s5.86-34.2,0-55.21s-10.75-29.8-7.82-50.33
		c2.93-20.52,17.59-68.4,17.59-94.79c0-26.38,7.82-49.84-3.91-47.88c-11.73,1.95-65.29,48.86-73.2,48.86
		c-7.91,0-31.36-39.09-89.02-32.25c0,0,5.86,75.24,20.52,122.15C1855.06,1008.51,1874.6,1045.64,1878.51,1060.3z"/>
	<path class="st1" d="M1908.9,852.15c6.75,0,25.2-15.64,40.4-22.48c15.21-6.84,25.95-13.68,31.82-19.54s-20.33-25.39-72.22-26.37
		c-89-1.69-89.02,38.96-89.02,38.96s31.91,3.05,52.6,10.86S1902.15,852.15,1908.9,852.15z"/>
	<path class="st1" d="M2029,1067.63c-1.95-39.58-17.59-65.96-17.59-65.96s-18.57,39.1-18.57,63.52c0,24.42,18.57,68.4,18.57,68.4
		S2030.96,1107.2,2029,1067.63z"/>
	<path class="st1" d="M2115,1491.24c9.77,0-2.8-56.68-17.48-144.63c-14.82-88.79-77.31-163.19-77.31-163.19s-1.95,75.24,21.5,170.03
		C2065.16,1448.25,2105.22,1491.24,2115,1491.24z"/>
	<path class="st1" d="M2573.7,1198.57c79.15,21.99,145.11,14.66,145.11,14.66s42.51,130.46,77.69,133.39
		c35.18-33.71,60.1-118.73,49.84-184.69c-10.26-65.96-32.25-127.53-33.71-142.18c-1.47-14.66-1.47-48.37-39.58-86.48
		s-52.77-58.63-52.77-58.63s-46.91,24.92-86.48,19.06s-89.41-21.99-82.08-27.85c7.33-5.86,46.91,13.19,92.35,11.73
		c45.44-1.47,68.89-19.06,68.89-19.06s-16.12-58.63-89.41-71.82c-73.29-13.19-99.67,21.99-99.67,32.25s-1.48,82.75-18.73,133.39
		c-17.49,51.35-35.51,87.95-35.51,87.95C2463.77,1069.58,2494.55,1176.59,2573.7,1198.57z M2701.23,1009.48
		c13.19-11.73,29.32,4.4,35.18,16.12c5.86,11.73,17.59,41.04-17.59,13.19C2683.64,1010.95,2701.23,1009.48,2701.23,1009.48z"/>
	<path class="st1" d="M2767.19,1346.62c-30.78-30.78-52.77-102.61-60.1-115.8c0,0-49.84,1.47-61.56,0
		c-11.73-1.47,10.26,42.51,51.3,87.95s102.61,87.95,142.18,105.54C2878.59,1441.9,2797.97,1377.4,2767.19,1346.62z"/>
	<path class="st1" d="M2822.89,1329.04l-13.19,27.84c0,0,45.44,26.38,61.56,30.78C2887.38,1392.06,2822.89,1329.04,2822.89,1329.04z
		"/>
	<path class="st1" d="M2491.62,1255.74c0,0-23.36,3.66-39.9,30.78c-16.54,27.12-13.6,59.37-20.2,53.5s-9.44-43.24,20.2-72.56
		c29.64-29.32,71.41-63.03,60.42-77.69c-10.99-14.66-23.9-20.17-33.71-40.97c-11.92-25.26-26.71-52.35-26.71-52.35
		s-10.73,48.86-24.42,74.27c-13.68,25.41-37.35,45.65-32.43,63.76c4.92,18.11-3.18,151.37-16.86,233.06
		c-25.56,152.69-97.66,328.81-97.66,328.81s51.58,4.66,78.94-12.93c27.36-17.59,70.86-169.77,101.54-279.24
		C2493.08,1389.13,2491.62,1255.74,2491.62,1255.74z"/>
	<path class="st1" d="M2370.44,1803.95c-7.82-2.93-44.16,13.68-90.16,7.82c0,0-1.7,32.25,0.26,43.97
		c1.95,11.73,11.73,11.64,25.41,12.61c13.68,0.98,26.38-9.68,35.39-9.68s18.41,18.27,42.78,4.89
		C2400.58,1854.52,2378.26,1806.88,2370.44,1803.95z"/>
	<path class="st1" d="M2221.95,1811.77c-19.54-1.95-48.28-5.17-48.28-5.17s-14.26,57.94-0.58,61.1
		c13.68,3.17,23.45-10.01,23.45-10.01s0.98,7.82,16.61,9.78s21.5-9.78,21.5-9.78s3.85,9.19,22.43,9.77
		c23.27,0.73,7.86-55.7,7.86-55.7S2241.5,1813.72,2221.95,1811.77z"/>
	<path class="st1" d="M2182.42,1794.18c0,0,61.96,9.06,77.6,0c8.33-4.83,51.79-118.24,86.48-275.57
		c34.69-157.33,27.85-299.02,27.85-299.02s-8.79-12.7-20.52-25.41c-11.73-12.7-35.18-21.5-35.18-21.5s-1.95,119.22-24.43,202.28
		c-20.13,74.38-75.24,126.06-84.04,147.56c-2.25,5.51,3.39,166.01-8.75,221.71C2194.11,1777.79,2182.42,1794.18,2182.42,1794.18z"/>
	<path class="st1" d="M2355.79,965.51c2.93,20.52-1.95,29.32-7.82,50.33c-5.86,21.01,0,23.94,0,55.21s-13.68,51.79-19.54,70.36
		c-5.86,18.57,0,18.57,21.5,31.27c21.5,12.7,21.5,19.54,33.22,19.54c11.73,0,27.36-22.48,39.09-43.97
		c11.73-21.5,19.54-73.29,23.45-87.95c3.91-14.66,23.45-51.79,38.11-98.7c14.66-46.91,20.52-122.15,20.52-122.15
		c-57.66-6.84-81.11,32.25-89.02,32.25s-61.47-46.91-73.2-48.86c-11.73-1.95-3.91,21.5-3.91,47.88
		C2338.2,897.11,2352.85,944.99,2355.79,965.51z"/>
	<path class="st1" d="M2374.9,829.68c15.21,6.84,33.65,22.48,40.4,22.48s15.73-10.75,36.42-18.57c20.69-7.82,52.6-10.86,52.6-10.86
		s-0.02-40.66-89.02-38.96c-51.89,0.99-78.08,20.51-72.22,26.37S2359.69,822.84,2374.9,829.68z"/>
	<path class="st1" d="M2331.36,1065.19c0-24.42-18.57-63.52-18.57-63.52s-15.64,26.38-17.59,65.96
		c-1.95,39.58,17.59,65.96,17.59,65.96S2331.36,1089.61,2331.36,1065.19z"/>
	<path class="st1" d="M2209.21,1491.24c9.77,0,49.84-43,73.29-137.79c23.45-94.79,21.5-170.03,21.5-170.03s-62.43,64.82-75.3,153.91
		C2214.02,1438.96,2199.43,1491.24,2209.21,1491.24z"/>
	<path class="st1" d="M1987.96,1007.47c5.86,2.99,23.03-37.08,23.03-37.08s37.55,43,36.58,97.23
		c-0.98,54.23-23.45,84.53-23.45,84.53s35.18,30.29,58.63,90.88c23.45,60.59,46.91,134.85,47.88,217.92
		c0.79,67.49,15.81,230.62-0.98,306.84c-3.28,14.9,16.71,21.5,24.63,21.5c7.73,0,16.18,0.64,22.28-12.7
		c29.47-64.5,16.21-247.79,17.01-315.64c0.98-83.06,24.43-157.33,47.88-217.92c23.45-60.59,58.63-90.88,58.63-90.88
		s-22.48-30.29-23.45-84.53c-0.98-54.23,36.58-97.23,36.58-97.23s17.17,40.07,23.03,37.08s6.03-64.44-9.96-90.82
		c-10.95-18.06-4.7-77.2-4.7-93.93s-38.67-37.25-75.3-26.55c-47.83,13.96-84.18,21.76-84.18,21.76s-36.36-7.8-84.18-21.76
		c-36.63-10.69-75.3,9.83-75.3,26.55s6.25,75.86-4.7,93.93C1981.93,943.03,1982.1,1004.48,1987.96,1007.47z M2070.43,845.31
		c3.52-2.93,16.22,8.79,41.63,15.64c25.41,6.84,50.04,8.79,50.04,8.79s24.63-1.95,50.04-8.79c25.41-6.84,38.11-18.57,41.63-15.64
		c3.52,2.93-6.45,13.68-33.81,26.38c-27.36,12.7-57.85,11.73-57.85,11.73s-30.49,0.98-57.85-11.73
		C2076.88,858.99,2066.92,848.25,2070.43,845.31z"/>
</g>
</svg>
