<svg id="Flag" xmlns="http://www.w3.org/2000/svg" viewBox="0 0 4321 2593"><defs><style>.cls-1{fill:#ed1c24;stroke:#231f20;stroke-miterlimit:10;}.cls-2{fill:#fff;}</style></defs><title>3-head-elephant</title><rect class="cls-1" x="0.5" y="0.5" width="4320" height="2592"/><g id="_3_head" data-name=" 3 head"><g id="Bottom"><rect class="cls-2" x="1800.5" y="1868.35" width="720" height="72" rx="1.44"/><rect class="cls-2" x="1728.5" y="1952.23" width="864" height="72" rx="1.66"/><rect class="cls-2" x="1638.5" y="2036.23" width="1044" height="72" rx="1.71"/><rect class="cls-2" x="1539.5" y="2120.23" width="1242" height="72" rx="1.26"/><rect class="cls-2" x="1449.5" y="2204.23" width="1422" height="72" rx="1.63"/></g><g id="Toes"><path class="cls-2" d="M2357.44,1834.51h27.44a1.63,1.63,0,0,1,1.63,1.63v18.27h-29.06v-19.9Z" transform="translate(-2 1.95)"/><rect class="cls-2" x="2324.48" y="1836.45" width="19.9" height="19.9"/><rect class="cls-2" x="2293.16" y="1836.45" width="19.9" height="19.9"/><rect class="cls-2" x="2262.21" y="1836.45" width="19.9" height="19.9"/><rect class="cls-2" x="2230.15" y="1836.45" width="19.9" height="19.9"/><rect class="cls-2" x="2198.09" y="1836.45" width="19.9" height="19.9"/><rect class="cls-2" x="2166.03" y="1836.45" width="19.9" height="19.9"/><path class="cls-2" d="M1967.56,1854.41H1938.5V1836a1.48,1.48,0,0,1,1.48-1.48h27.58v19.9Z" transform="translate(-2 1.95)"/><rect class="cls-2" x="1976.61" y="1836.45" width="19.9" height="19.9"/><rect class="cls-2" x="2007.94" y="1836.45" width="19.9" height="19.9"/><rect class="cls-2" x="2038.9" y="1836.45" width="19.9" height="19.9"/><rect class="cls-2" x="2070.96" y="1836.45" width="19.9" height="19.9"/><rect class="cls-2" x="2103.02" y="1836.45" width="19.9" height="19.9"/><rect class="cls-2" x="2135.08" y="1836.45" width="19.9" height="19.9"/></g><g id="Elephant"><path class="cls-2" d="M2305.62,1091.42c-2.41,2.54-4.89,5.1-7.42,7.72-5.67,5.85-11.64,12-17.73,18.79a838.11,838.11,0,0,1-10.62,139.62c-18.15,113.16-61.52,185.12-63.35,188.13a6.34,6.34,0,0,1-1.33,1.5c-1.19,47.24-2.05,95.17-2.79,136.29-1.51,84-3.5,131.89-4.31,142.13-1.07,13.41-6.16,27.56-9.4,35,0,0,63.38-.4,77.33,4,83.49-256.14,104.72-645.16,104.72-645.16C2342.59,1113.33,2313.85,1096.49,2305.62,1091.42Z" transform="translate(-2 1.95)"/><path class="cls-2" d="M2017.42,1822.48H2156.5v-49.93h-77a50.52,50.52,0,0,0-40.77,20.69Z" transform="translate(-2 1.95)"/><path class="cls-2" d="M2178,1772.58h-9.47v49.93h139.13l-21.43-29.26a50.34,50.34,0,0,0-40.66-20.64H2178Z" transform="translate(-2 1.95)"/><path class="cls-2" d="M2106.11,1228.4c-13.25-44-31.35-73.61-49.52-96.29A818.11,818.11,0,0,0,2067,1255.65c12.61,78.55,38.2,137.8,52.16,165.84C2116.63,1332.27,2112.77,1250.54,2106.11,1228.4Z" transform="translate(-2 1.95)"/><path class="cls-2" d="M2026.8,1099.15c-2.53-2.62-5-5.18-7.42-7.72-8.23,5.07-37,21.91-65.13,28,0,0,24.36,383.17,104.75,645.15,14-4,42.36-4,42.36-4,8.17-13.57,22.54-40.74,22.54-62.41,0-10.28.26-30.7-1.25-114.7-.74-41.12-1.6-89-2.79-136.29a6.34,6.34,0,0,1-1.33-1.5c-1.83-3-45.2-75-63.35-188.13a838.11,838.11,0,0,1-10.62-139.62C2038.44,1111.15,2032.47,1105,2026.8,1099.15Z" transform="translate(-2 1.95)"/><path class="cls-2" d="M2316.56,1783.32c-9,2.31-13.22,7.44-15,10.52l21,28.67H2377s-1-12.12-8.6-20.73c-11-12.38-32.6-20.72-32.6-20.72A83.52,83.52,0,0,0,2316.56,1783.32Z" transform="translate(-2 1.95)"/><path class="cls-2" d="M2268.41,1132.15c-18.17,22.68-36.27,52.27-49.52,96.29-6.66,22.14-10.52,103.87-13,193.09,14-28,39.55-87.29,52.16-165.84A816.76,816.76,0,0,0,2268.41,1132.15Z" transform="translate(-2 1.95)"/><path class="cls-2" d="M2023.48,1793.84c-1.82-3.08-6.07-8.21-15-10.52a85.85,85.85,0,0,0-19.21-2.26s-21.11,7.88-32.6,20.72a34,34,0,0,0-8.6,20.73h54.48Z" transform="translate(-2 1.95)"/><path class="cls-2" d="M2490.63,1231.65c-20,14.27-43.83,23.88-48.85,21.37s13.67-6.18,39.26-26.27c16.24-12.75,26.3-23.52,31.35-29.48l41.87-56.06c-8.12-8.32-23.72-24.16-43.17-43.06-19.26-18.72-39.34-49.73-45.38-59.34a71.18,71.18,0,0,0-12.95,14.12c-3.11,4.48-4.42,10-5.94,16.42-3.39,14.28-7.61,32-34.39,47.06-6.62,3.72-14.4,5.24-22.69,5.24-2.34,0-4.73-.12-7.14-.35,0,0-24.83,281.35-45.42,400.91-22.12,128.43-60.71,246.94-60.71,246.94l17.62,14.62a36.17,36.17,0,0,1,19.47-12c5.27-1.36,12.59-2,18.7-2.37,0,0,78.8-168.6,105.11-279.37,15.75-66.33,60.27-263.5,60.27-263.5Q2494.35,1229,2490.63,1231.65Z" transform="translate(-2 1.95)"/><path class="cls-2" d="M2737.5,1333.94a356.55,356.55,0,0,1-31.14-33.88c-15.21,10.49-44.2,39-63.36,111.45-27,102-2.1,275.78-55,289.67-10.92,2.86-36.14-9.93-33.74-.7,5.33,20.52,10,35.18-1.28,53.6-10.13,16.55,30.91-5.09,49.42-10.92,54.77-17.27,64.66-45.08,77-142.75,12.16-96.31,12.1-120.23,32.1-183.23,12.83-40.43,35.55-55.6,50.18-61.28C2755.46,1350.56,2747.42,1343.37,2737.5,1333.94Z" transform="translate(-2 1.95)"/><path class="cls-2" d="M2680.57,1151.71a289.59,289.59,0,0,1,30.85-19.67,60.48,60.48,0,0,0-14.56-7.92c-22.47-8.67-48.4,10.47-58.93,19.53,2.9,8.35,7.38,20.51,13.55,35.09A180.83,180.83,0,0,1,2680.57,1151.71Z" transform="translate(-2 1.95)"/><path class="cls-2" d="M2939.58,1385.41c-61.69-10.08-97.13-31.52-116-47.74-59.5-51.15-72.17-102.26-82.35-143.33-5.51-22.22-10-40.42-20.76-53.58-4.81,2.6-20.15,11.13-32.71,20.55-17,12.74-27.09,24.86-30.88,29.83,5.13,11.43,11.15,23.94,18.11,37,14.47,27.15,26.56,45.67,33.89,56.12a6,6,0,0,1,1.45,1.39,336.3,336.3,0,0,0,35.43,39.62c26,24.69,38.89,33.74,39,33.83a5.53,5.53,0,0,1,.79.66c13.57,8.56,41.51,22.82,87.92,32.1a269.91,269.91,0,0,0,87.24,2.55,3.09,3.09,0,0,0-.07-6.14Q2950.08,1387.12,2939.58,1385.41Z" transform="translate(-2 1.95)"/><path class="cls-2" d="M2526.33,846.48c-9.78-6.51-35-19-87.83-23.13-54.06-4.17-75,8.29-81.95,14.59-2,4.9-4.91,15.63-4.42,36.25.87,36.32,27.38,74.22,18.12,69.52s-28.26-34.35-30.1-68.88c-1.1-20.55,1.6-33,4.51-40.22-10.1-6-29.91-13.7-64.62-13.7-79,0-86.53,28.6-117.54,28.6s-38.5-28.6-117.5-28.6c-34.71,0-54.52,7.74-64.62,13.7,2.91,7.25,5.61,19.67,4.51,40.22-1.84,34.53-20.85,64.18-30.1,68.88s17.25-33.2,18.12-69.52c.49-20.62-2.4-31.35-4.42-36.25-7-6.3-27.89-18.76-82-14.59-52.86,4.08-78,16.62-87.83,23.13-2.9,10.79-8.82,40.65-3.17,56,5.36,14.61,9.9,18.87,15.15,23.81a58.83,58.83,0,0,1,11.85,14.3c5.06,8.63,5,19.85,5,30.71s-.07,22.2,5,30,12,12.42,20.08,17.79c9.43,6.27,20.11,13.39,29.52,26.93,4.4,6.34,6.11,13.53,7.76,20.49,3.14,13.24,6.39,26.92,28.57,39.36,12,6.7,32.2,4.51,58.56-6.34a270.31,270.31,0,0,0,34.11-17.21c-2.08-2.38-4.07-4.74-5.9-7.09-25.19-32.4-30.53-102.08-27.19-102.46s13.56,65.34,36.73,95.16c5.63,7.25,12.64,14.49,20.75,22.86,3,3.07,6.06,6.27,9.24,9.63q.12-8.13.26-15.82c.48-27.46.89-51.18-2.29-71.59a101.18,101.18,0,0,0-5.78-20.93c-8.32-4.88-20.86-13.3-26.81-22.57-6.45-10-9.49-28.11-10.76-38.32-4.13-5.91-6.39-10-5.16-11.66,4.39-6,52.53,41.24,60.37,91.63,3.34,21.44,2.92,45.64,2.42,73.65-.15,9-.32,18.57-.38,28.62,21.54,24.65,45,58.31,61.06,111.51,11.26,37.43,14.59,222.9,17,358.32,1.26,70,1.11,105.38,1.11,115.17,0,26.75-14.73,50.83-21.14,62.15h60.82c2.7-5.35,9.59-21.32,10.86-37.15.78-9.76,2.85-70.13,4.11-140.17,2.43-135.42,5.76-320.89,17-358.32,16-53.2,39.52-86.86,61.06-111.51-.06-10-.23-19.57-.38-28.62-.5-28-.92-52.21,2.42-73.65,7.84-50.39,56-97.65,60.37-91.63,1.23,1.69-1,5.75-5.16,11.66-1.27,10.21-4.31,28.27-10.76,38.32-5.95,9.27-18.49,17.69-26.81,22.57a101.18,101.18,0,0,0-5.78,20.93c-3.18,20.41-2.77,44.13-2.29,71.59q.14,7.68.26,15.82c3.18-3.36,6.28-6.56,9.24-9.63,8.11-8.37,15.12-15.61,20.75-22.86,23.17-29.82,33.43-95.53,36.73-95.16s-2,70.06-27.25,102.53c-1.83,2.35-3.82,4.71-5.9,7.09A268.06,268.06,0,0,0,2348,1099.6c26.36,10.85,46.61,13,58.56,6.34,22.18-12.44,25.43-26.12,28.57-39.36,1.65-7,3.36-14.15,7.76-20.49,9.41-13.54,20.09-20.66,29.52-26.93,8.07-5.37,15-10,20.08-17.79s5.05-19.12,5-30-.07-22.08,5-30.71a58.83,58.83,0,0,1,11.85-14.3c5.25-4.94,9.79-9.2,15.15-23.81C2535.15,887.15,2529.23,857.27,2526.33,846.48ZM1917.71,874a355.46,355.46,0,0,0-24.85,26.49,6,6,0,0,1-8.3,1.76,6.43,6.43,0,0,1-.82-.64c-.12-.11-12.84-9.49-28.66-19.57-17.58-11.21-34.58-6.49-38.13-11.9s25.64-7.93,43.58,1.2a155.38,155.38,0,0,1,26.22,17.07c4.78-6.33,13.5-16.75,24-24.21,17.12-12.13,47.73-14.15,43.24-8.57S1932.5,860,1917.71,874Zm244.79,36.55c-54,0-121.85-63-116.49-65.69,6.82-3.47,76.16,53.44,116.49,53.44s110.33-56.91,116.5-53.44C2284.23,847.77,2216.5,910.51,2162.5,910.51Zm345.55-40.36c-3.55,5.41-20.55.69-38.13,11.9-15.82,10.08-28.54,19.46-28.66,19.57a6,6,0,0,1-8.48-.3h0a6.24,6.24,0,0,1-.64-.82A355.46,355.46,0,0,0,2407.29,874c-14.79-14-31.8-12.8-36.3-18.37s26.12-3.56,43.24,8.57c10.52,7.46,19.24,17.88,24,24.21a155.38,155.38,0,0,1,26.22-17.07C2482.41,862.15,2511.61,864.68,2508.05,870.15Z" transform="translate(-2 1.95)"/><path class="cls-2" d="M1942.4,1121.3c-2.41.23-4.8.35-7.14.35-8.29,0-16.07-1.52-22.69-5.24-26.78-15-31-32.78-34.39-47.06-1.52-6.41-2.83-11.94-5.94-16.42a71.43,71.43,0,0,0-13-14.12c-6,9.61-26.12,40.62-45.38,59.34-19.45,18.9-35,34.74-43.17,43.06l41.87,56.06c5,6,15.11,16.73,31.35,29.48,25.59,20.09,44.29,23.76,39.26,26.27s-28.85-7.1-48.85-21.37q-3.73-2.67-7-5.19s43.29,197.46,60.27,263.49c29,112.81,105.11,279.38,105.11,279.38,6.11.34,13.43,1,18.7,2.37a36.17,36.17,0,0,1,19.47,12l17.62-14.62s-41.93-136.95-62.87-263.55C1966.23,1388.26,1942.4,1121.3,1942.4,1121.3Z" transform="translate(-2 1.95)"/><path class="cls-2" d="M1563.32,1355.9c14.63,5.68,37.35,20.85,50.18,61.28,20,63,19.94,86.92,32.1,183.23,12.34,97.67,22.23,125.48,77,142.75,18.51,5.83,59.55,27.47,49.42,10.92-11.28-18.42-6.61-33.08-1.28-53.6,2.4-9.23-22.91,3.89-33.74.7-53.93-15.89-28-187.67-55-289.67-19.16-72.45-48.15-101-63.36-111.45a356.55,356.55,0,0,1-31.14,33.88C1577.58,1343.37,1569.54,1350.56,1563.32,1355.9Z" transform="translate(-2 1.95)"/><path class="cls-2" d="M1628.14,1124.15a60.48,60.48,0,0,0-14.56,7.92,289.59,289.59,0,0,1,30.85,19.67,181.52,181.52,0,0,1,29.09,27c6.17-14.58,10.65-26.74,13.55-35.09C1676.54,1134.59,1650.61,1115.45,1628.14,1124.15Z" transform="translate(-2 1.95)"/><path class="cls-2" d="M1614.66,1285.63a5.63,5.63,0,0,1,1.45-1.39c7.33-10.45,19.42-29,33.89-56.12,7-13,13-25.55,18.11-37-3.79-5-13.9-17.09-30.88-29.83a281.33,281.33,0,0,0-32.71-20.55c-10.74,13.16-15.25,31.36-20.76,53.58-10.18,41.07-22.85,92.18-82.35,143.33-18.86,16.22-54.3,37.66-116,47.74q-10.62,1.71-21.33,2.88a3.06,3.06,0,0,0-.07,6.08c23.42,3.08,54.17,4.17,87.48-2.53,46.37-9.33,74.35-23.54,87.92-32.1a5.53,5.53,0,0,1,.79-.66c.13-.09,13-9.14,39-33.83A337.17,337.17,0,0,0,1614.66,1285.63Z" transform="translate(-2 1.95)"/><path class="cls-2" d="M2821.47,1286.57c14.07-37.77,29.53-87.88,2.7-179.64-19.13-65.42-56.67-79.09-68.67-131.42-11.52-50.24-49.5-74-64.5-89s-8.25-26.25-37.5-39c-35.1-15.3-93.46-3.82-114.3,1.07,2.75,12.08,8,40.46,1.57,58.07-6.34,17.27-12.37,22.94-18.2,28.43a46.82,46.82,0,0,0-9.72,11.63c-3.4,5.79-3.37,14.92-3.34,24.59,0,12.08.09,25.78-6.94,36.6-6.4,9.86-15.09,15.65-23.5,21.25l-3.59,2.4c5.51,7.78,27.23,38.12,44,58a339,339,0,0,0,42.43,42.2c2.71,1.59,20.19,11.35,39.62,9.77,23-1.87,32.38-10.2,32.38-10.2v.09a126,126,0,0,1,14.65-10.14c19.22-11.32,37.42-14.2,52.62-8.34,35.65,13.76,43.09,43.78,51.71,78.54,8.35,33.68,18.44,74.39,56.52,115.88C2814,1300.88,2819.09,1293,2821.47,1286.57ZM2557.63,877.65h0c4.37-3.64,28.1,6.34,47.94,6.34,20.76,0,40.26-15.35,46.59-12.91S2630.67,896,2605.57,896C2582.93,896,2553.27,881.28,2557.63,877.65Zm107.6,112.58c-11.45,27.55-55.15-8.49-49.85-20.16S2677.06,961.65,2665.23,990.23Z" transform="translate(-2 1.95)"/><path class="cls-2" d="M2836.08,1274.53c-2.69,17.43-13.77,34.37-18.85,41,4.39,4.36,9.1,8.73,14.18,13.09,37.91,32.61,94.62,44,132.88,48a3.06,3.06,0,0,0,1.43-5.89C2928.23,1356,2866.49,1326.93,2836.08,1274.53Z" transform="translate(-2 1.95)"/><path class="cls-2" d="M1487,1274.33c-32.31,57.92-90.76,83.35-127.29,96.57a2.88,2.88,0,0,0,1.27,5.58c38.25-4,94.77-15.38,132.61-47.92,4.86-4.18,9.38-8.35,13.61-12.53C1502,1309.32,1491,1300.06,1487,1274.33Z" transform="translate(-2 1.95)"/><path class="cls-2" d="M1845.93,1029.15c-8.41-5.6-17.1-11.39-23.5-21.25-7-10.82-7-24.52-6.94-36.6,0-9.67.06-18.8-3.34-24.59a46.82,46.82,0,0,0-9.72-11.63c-5.83-5.49-11.86-11.16-18.2-28.43-6.46-17.61-1.18-46,1.57-58.07-20.84-4.89-79.2-16.37-114.3-1.07-29.25,12.75-22.5,24-37.5,39s-53,38.76-64.5,89c-12,52.33-51.67,65.42-68.67,131.42-8.54,33.16-32.83,101.22,1.7,179.64A131.55,131.55,0,0,0,1515,1308c38.55-41.71,48.7-82.66,57.09-116.51,8.62-34.76,16.06-64.78,51.71-78.54,15.2-5.86,33.4-3,52.62,8.34a124.83,124.83,0,0,1,14.65,10.14v-.09s9.33,8.33,32.38,10.2c19.43,1.58,36.91-8.18,39.62-9.77a339,339,0,0,0,42.43-42.2c16.74-19.87,38.46-50.21,44-58Zm-186.16-38.93h0c-11.86-28.55,44.54-31.81,49.85-20.15S1671.23,1017.75,1659.77,990.22ZM1719.43,896h0c-25.1,0-52.93-22.48-46.59-24.91S1698.67,884,1719.43,884c19.84,0,43.57-10,47.94-6.34S1742.07,896,1719.43,896Z" transform="translate(-2 1.95)"/><path class="cls-2" d="M2566.55,1148.33s8.08,30.41,39,47.91c33,18.71,46.88,45.14,45.91,54.91s16.16-11.67,8.74-25.55c-15.54-29.07-38.15-80.28-33.17-75.4,0,0-11.18,3.89-28.5,3.89A97.39,97.39,0,0,1,2566.55,1148.33Z" transform="translate(-2 1.95)"/><path class="cls-2" d="M1760.31,1147.33s-10.08,31.41-41,48.91c-33,18.71-46.88,45.14-45.9,54.91s-16.17-11.67-8.75-25.55c15.54-29.07,38.16-80.28,33.18-75.4,0,0,11.17,3.89,28.49,3.89S1760.31,1147.33,1760.31,1147.33Z" transform="translate(-2 1.95)"/></g><g id="Top"><rect class="cls-2" x="1791.5" y="732.95" width="738" height="45" rx="1.71"/><rect class="cls-2" x="1836.5" y="675.95" width="648" height="45" rx="1.72"/><rect class="cls-2" x="1886" y="618.95" width="549" height="45" rx="1.73"/><rect class="cls-2" x="1935.5" y="561.95" width="450" height="45" rx="1.68"/><rect class="cls-2" x="1985" y="504.95" width="351" height="45" rx="1.72"/><rect class="cls-2" x="2039" y="447.95" width="243" height="45" rx="1.64"/><rect class="cls-2" x="2088.5" y="390.95" width="144" height="45" rx="1.48"/><rect class="cls-2" x="2138" y="342.95" width="45" height="36" rx="1.71"/><path class="cls-2" d="M2159.92,257.56a2.61,2.61,0,0,1,5.16,0L2176,327.49a1.52,1.52,0,0,1-1.52,1.52h-24a1.52,1.52,0,0,1-1.52-1.52Z" transform="translate(-2 1.95)"/><rect class="cls-2" x="2147" y="819.95" width="27" height="18" rx="1.44"/><rect class="cls-2" x="2106.5" y="789.95" width="108" height="18" rx="1.69"/></g></g></svg>