<svg id="Flag" xmlns="http://www.w3.org/2000/svg" viewBox="0 0 4321 2593"><defs><style>.cls-1{fill:#ed1c24;stroke:#231f20;stroke-miterlimit:10;}.cls-2{fill:#fff;}</style></defs><title>3-head-elephant</title><rect class="cls-1" x="0.5" y="0.5" width="4320" height="2592"/><g id="_3_head" data-name="3 head"><g id="Bottom"><rect class="cls-2" x="1800.5" y="1870.26" width="720" height="72" rx="1.44" ry="1.44"/><rect class="cls-2" x="1728.5" y="1954.14" width="864" height="72" rx="1.66" ry="1.66"/><rect class="cls-2" x="1638.5" y="2038.14" width="1044" height="72" rx="1.71" ry="1.71"/><rect class="cls-2" x="1539.5" y="2122.14" width="1242" height="72" rx="1.26" ry="1.26"/><rect class="cls-2" x="1449.5" y="2206.14" width="1422" height="72" rx="1.63" ry="1.63"/></g><g id="Toes"><path class="cls-2" d="M2355.44,1838.36h37.44a1.63,1.63,0,0,1,1.63,1.63v18.27a0,0,0,0,1,0,0h-39.06a0,0,0,0,1,0,0v-19.9A0,0,0,0,1,2355.44,1838.36Z"/><rect class="cls-2" x="2324.48" y="1838.36" width="19.9" height="19.9"/><rect class="cls-2" x="2293.16" y="1838.36" width="19.9" height="19.9"/><rect class="cls-2" x="2262.21" y="1838.36" width="19.9" height="19.9"/><rect class="cls-2" x="2230.15" y="1838.36" width="19.9" height="19.9"/><rect class="cls-2" x="2198.09" y="1838.36" width="19.9" height="19.9"/><rect class="cls-2" x="2166.03" y="1838.36" width="19.9" height="19.9"/><path class="cls-2" d="M1928.5,1836.41h39.06a0,0,0,0,1,0,0v18.42a1.48,1.48,0,0,1-1.48,1.48H1928.5a0,0,0,0,1,0,0v-19.9A0,0,0,0,1,1928.5,1836.41Z" transform="translate(3894.06 3694.67) rotate(-180)"/><rect class="cls-2" x="1978.62" y="1836.41" width="19.9" height="19.9" transform="translate(3975.13 3694.67) rotate(-180)"/><rect class="cls-2" x="2009.94" y="1836.41" width="19.9" height="19.9" transform="translate(4037.78 3694.67) rotate(-180)"/><rect class="cls-2" x="2040.89" y="1836.41" width="19.9" height="19.9" transform="translate(4099.69 3694.67) rotate(-180)"/><rect class="cls-2" x="2072.95" y="1836.41" width="19.9" height="19.9" transform="translate(4163.81 3694.67) rotate(-180)"/><rect class="cls-2" x="2105.01" y="1836.41" width="19.9" height="19.9" transform="translate(4227.93 3694.67) rotate(-180)"/><rect class="cls-2" x="2137.07" y="1836.41" width="19.9" height="19.9" transform="translate(4292.05 3694.67) rotate(-180)"/></g><g id="Elephant"><path class="cls-2" d="M2305.62,1093.32c-2.41,2.54-4.89,5.1-7.42,7.72-5.67,5.85-11.64,12-17.73,18.79a838.12,838.12,0,0,1-10.62,139.62c-18.15,113.16-61.52,185.12-63.35,188.13a6,6,0,0,1-1.33,1.5c-1.19,47.24-2.05,95.17-2.79,136.29-1.51,84-3.5,131.89-4.31,142.13-1.07,13.41-6.16,27.56-9.4,35H2269l101.72-641.16C2342.59,1115.23,2313.85,1098.39,2305.62,1093.32Z" transform="translate(-2 1.95)"/><path class="cls-2" d="M2035,1800.38l-17.58,24H2156.5v-49.93H2053.89l-18.44,25.22A7.9,7.9,0,0,1,2035,1800.38Z" transform="translate(-2 1.95)"/><path class="cls-2" d="M2178,1774.48h-9.47v49.93h139.13l-17.58-24a7.9,7.9,0,0,1-.5-.68l-18.44-25.22H2178Z" transform="translate(-2 1.95)"/><path class="cls-2" d="M2106.11,1230.3c-13.25-44-31.35-73.61-49.52-96.29a816.78,816.78,0,0,0,10.4,123.54c12.61,78.55,38.2,137.8,52.16,165.84C2116.63,1334.17,2112.77,1252.44,2106.11,1230.3Z" transform="translate(-2 1.95)"/><path class="cls-2" d="M2026.8,1101c-2.53-2.62-5-5.18-7.42-7.72-8.23,5.07-37,21.91-65.13,28L2056,1762.48h45.36c8.17-13.57,22.54-40.74,22.54-62.41,0-10.28.26-30.7-1.25-114.7-.74-41.12-1.6-89-2.79-136.29a6,6,0,0,1-1.33-1.5c-1.83-3-45.2-75-63.35-188.13a838.12,838.12,0,0,1-10.62-139.62C2038.44,1113.06,2032.47,1106.89,2026.8,1101Z" transform="translate(-2 1.95)"/><path class="cls-2" d="M2316.56,1785.22c-9,2.31-13.22,7.44-15,10.52l21,28.67H2377l-37.2-41.45C2333.94,1783.09,2323,1783.55,2316.56,1785.22Z" transform="translate(-2 1.95)"/><path class="cls-2" d="M2268.41,1134c-18.17,22.68-36.27,52.27-49.52,96.29-6.66,22.14-10.52,103.87-13,193.09,14-28,39.55-87.29,52.16-165.84A816.78,816.78,0,0,0,2268.41,1134Z" transform="translate(-2 1.95)"/><path class="cls-2" d="M2023.48,1795.74c-1.82-3.08-6.07-8.21-15-10.52-6.46-1.67-17.38-2.13-23.21-2.26l-37.2,41.45h54.48Z" transform="translate(-2 1.95)"/><path class="cls-2" d="M2490.63,1233.55c-20,14.27-43.83,23.88-48.85,21.37s13.67-6.18,39.26-26.27c16.24-12.75,26.3-23.52,31.35-29.48l41.87-56.06c-8.12-8.32-23.72-24.16-43.17-43.06-19.26-18.72-39.34-49.73-45.38-59.34a71.26,71.26,0,0,0-12.95,14.12c-3.11,4.48-4.42,10-5.94,16.42-3.39,14.28-7.61,32-34.39,47.06-6.62,3.72-14.4,5.24-22.69,5.24-2.34,0-4.73-.12-7.14-.35L2280.47,1767l13.62,18.62a36.23,36.23,0,0,1,19.47-12c5.27-1.36,12.59-2,18.7-2.37l165.38-542.87Q2494.35,1230.88,2490.63,1233.55Z" transform="translate(-2 1.95)"/><path class="cls-2" d="M2737.5,1335.84a356.37,356.37,0,0,1-31.14-33.88c-15.21,10.49-44.2,39-63.36,111.45-27,102-4.41,291.67-59,291.67-37,0-36.5-32.67-36.5-32.67h-32s-.5,76.9,68.5,76.9,83.06-49.33,95.4-147c12.16-96.31,12.1-120.23,32.1-183.23,12.83-40.43,35.55-55.6,50.18-61.28C2755.46,1352.46,2747.42,1345.27,2737.5,1335.84Z" transform="translate(-2 1.95)"/><path class="cls-2" d="M2680.57,1153.61a288.39,288.39,0,0,1,30.85-19.67,60.4,60.4,0,0,0-14.56-7.92c-22.47-8.67-48.4,10.47-58.93,19.53,2.9,8.35,7.38,20.51,13.55,35.09A181.5,181.5,0,0,1,2680.57,1153.61Z" transform="translate(-2 1.95)"/><path class="cls-2" d="M2939.58,1387.31c-61.69-10.08-97.13-31.52-116-47.74-59.5-51.15-72.17-102.26-82.35-143.33-5.51-22.22-10-40.42-20.76-53.58-4.81,2.6-20.15,11.13-32.71,20.55-17,12.74-27.09,24.86-30.88,29.83,5.13,11.43,11.15,23.94,18.11,37,14.47,27.15,26.56,45.67,33.89,56.12a6,6,0,0,1,1.45,1.39,336.61,336.61,0,0,0,35.43,39.62c26,24.69,38.89,33.74,39,33.83a5.64,5.64,0,0,1,.79.66c13.57,8.56,41.51,22.82,87.92,32.1s87.78,3.57,111.37-1.67A406.49,406.49,0,0,1,2939.58,1387.31Z" transform="translate(-2 1.95)"/><path class="cls-2" d="M2874.83,1303.41c-50.66-82.33-33.66-148.58-50.66-214.58s-56.67-59.09-68.67-111.42c-11.52-50.24-49.5-74-64.5-89s-8.25-26.25-37.5-39c-35.1-15.3-93.46-3.82-114.3,1.07,2.75,12.08,8,40.46,1.57,58.07-6.34,17.27-12.37,22.94-18.2,28.43a46.9,46.9,0,0,0-9.72,11.63c-3.4,5.79-3.37,14.92-3.34,24.59,0,12.08.09,25.78-6.94,36.6-6.4,9.86-15.09,15.65-23.5,21.25l-3.59,2.4c5.51,7.78,27.23,38.12,44,58a339.72,339.72,0,0,0,42.43,42.2c2.71,1.59,20.19,11.35,39.62,9.77,23.05-1.87,32.38-10.2,32.38-10.2l0,.09a126.25,126.25,0,0,1,14.65-10.14c19.22-11.32,37.42-14.2,52.62-8.34,35.65,13.76,43.09,43.78,51.71,78.54,9.77,39.41,21.92,88.45,78.52,137.11,46,39.57,119.69,47.91,154.49,49.59C2956.08,1369.29,2900.15,1344.54,2874.83,1303.41Zm-317.2-423.86c4.37-3.64,28.1,6.34,47.94,6.34,20.76,0,40.26-15.35,46.59-12.91s-21.49,24.91-46.59,24.91C2582.93,897.89,2553.27,883.18,2557.63,879.55ZM2650.57,1005c-27.58,11.39-33-45-21-49.5S2679.14,993.21,2650.57,1005Z" transform="translate(-2 1.95)"/><path class="cls-2" d="M2526.33,848.38c-9.78-6.51-35-19-87.83-23.13-54.06-4.17-75,8.29-81.95,14.59-2,4.9-4.91,15.63-4.42,36.25.87,36.32,27.38,74.22,18.12,69.52s-28.26-34.35-30.1-68.88c-1.1-20.55,1.6-33,4.51-40.22-10.1-6-29.91-13.7-64.62-13.7-79,0-117.54,39.6-117.54,39.6S2124,822.81,2045,822.81c-34.71,0-54.52,7.74-64.62,13.7,2.91,7.25,5.61,19.67,4.51,40.22-1.84,34.53-20.85,64.18-30.1,68.88s17.25-33.2,18.12-69.52c.49-20.62-2.4-31.35-4.42-36.25-7-6.3-27.89-18.76-82-14.59-52.86,4.08-78,16.62-87.83,23.13-2.9,10.79-8.82,40.65-3.17,56,5.36,14.61,9.9,18.87,15.15,23.81a59.09,59.09,0,0,1,11.85,14.3c5.06,8.63,5,19.85,5,30.71s-.07,22.2,5,30,12,12.42,20.08,17.79c9.43,6.27,20.11,13.39,29.52,26.93,4.4,6.34,6.11,13.53,7.76,20.49,3.14,13.24,6.39,26.92,28.57,39.36,12,6.7,32.2,4.51,58.56-6.34a268.31,268.31,0,0,0,34.11-17.21c-2.08-2.38-4.07-4.74-5.9-7.09C1980,1044.73,1974.66,975,1978,974.67s13.56,65.34,36.73,95.16c5.63,7.25,12.64,14.49,20.75,22.86,3,3.07,6.06,6.27,9.24,9.63q.12-8.13.26-15.82c.48-27.46.89-51.18-2.29-71.59a101,101,0,0,0-5.78-20.93c-8.32-4.88-20.86-13.3-26.81-22.57-6.45-10-9.49-28.11-10.76-38.32-4.13-5.91-6.39-10-5.16-11.66,4.39-6,52.53,41.24,60.37,91.63,3.34,21.44,2.92,45.64,2.42,73.65-.15,9-.32,18.57-.38,28.62,21.54,24.65,45.05,58.31,61.06,111.51,11.26,37.43,14.59,222.9,17,358.32,1.26,70,1.11,105.38,1.11,115.17,0,26.75-14.73,50.83-21.14,62.15h60.82c2.7-5.35,9.59-21.32,10.86-37.15.78-9.76,2.85-70.13,4.11-140.17,2.43-135.42,5.76-320.89,17-358.32,16-53.2,39.52-86.86,61.06-111.51-.06-10-.23-19.57-.38-28.62-.5-28-.92-52.21,2.42-73.65,7.84-50.39,56-97.65,60.37-91.63,1.23,1.69-1,5.75-5.16,11.66-1.27,10.21-4.31,28.27-10.76,38.32-5.95,9.27-18.49,17.69-26.81,22.57a101,101,0,0,0-5.78,20.93c-3.18,20.41-2.77,44.13-2.29,71.59q.13,7.68.26,15.82c3.18-3.36,6.28-6.56,9.24-9.63,8.11-8.37,15.12-15.61,20.75-22.86,23.17-29.82,33.43-95.53,36.73-95.16s-2,70.06-27.25,102.53c-1.83,2.35-3.82,4.71-5.9,7.09A268.31,268.31,0,0,0,2348,1101.5c26.36,10.85,46.61,13,58.56,6.34,22.18-12.44,25.43-26.12,28.57-39.36,1.65-7,3.36-14.15,7.76-20.49,9.41-13.54,20.09-20.66,29.52-26.93,8.07-5.37,15-10,20.08-17.79s5.05-19.12,5-30-.07-22.08,5-30.71a59.09,59.09,0,0,1,11.85-14.3c5.25-4.94,9.79-9.2,15.15-23.81C2535.15,889,2529.23,859.17,2526.33,848.38Zm-608.62,27.48a358.72,358.72,0,0,0-24.85,26.49,6,6,0,0,1-9.12,1.12c-.12-.11-12.84-9.49-28.66-19.57-17.58-11.21-34.58-6.49-38.13-11.9s25.64-7.93,43.58,1.2a155.81,155.81,0,0,1,26.22,17.07c4.78-6.33,13.5-16.75,24-24.21,17.12-12.13,47.73-14.15,43.24-8.57S1932.5,861.91,1917.71,875.86Zm244.79,36.55c-54,0-121.85-63-116.49-65.69,6.82-3.47,76.16,53.44,116.49,53.44s110.33-56.91,116.49-53.44C2284.23,849.67,2216.5,912.41,2162.5,912.41ZM2508.05,872c-3.55,5.41-20.55.69-38.13,11.9-15.82,10.08-28.54,19.46-28.66,19.57a6,6,0,0,1-9.12-1.12,358.72,358.72,0,0,0-24.85-26.49c-14.79-14-31.8-12.8-36.3-18.37s26.12-3.56,43.24,8.57c10.52,7.46,19.24,17.88,24,24.21a155.81,155.81,0,0,1,26.22-17.07C2482.41,864.07,2511.61,866.58,2508.05,872Z" transform="translate(-2 1.95)"/><path class="cls-2" d="M1942.4,1123.2c-2.41.23-4.8.35-7.14.35-8.29,0-16.07-1.52-22.69-5.24-26.78-15-31-32.78-34.39-47.06-1.52-6.41-2.83-11.94-5.94-16.42a71.26,71.26,0,0,0-13-14.12c-6,9.61-26.12,40.62-45.38,59.34-19.45,18.9-35.05,34.74-43.17,43.06l41.87,56.06c5.05,6,15.11,16.73,31.35,29.48,25.59,20.09,44.29,23.76,39.26,26.27s-28.85-7.1-48.85-21.37q-3.73-2.67-7-5.19l165.38,542.87c6.11.34,13.43,1,18.7,2.37a36.23,36.23,0,0,1,19.47,12l13.62-18.62Z" transform="translate(-2 1.95)"/><path class="cls-2" d="M1845.93,1031.05c-8.41-5.6-17.1-11.39-23.5-21.25-7-10.82-7-24.52-6.94-36.6,0-9.67.06-18.8-3.34-24.59a46.9,46.9,0,0,0-9.72-11.63c-5.83-5.49-11.86-11.16-18.2-28.43-6.46-17.61-1.18-46,1.57-58.07-20.84-4.89-79.2-16.37-114.3-1.07-29.25,12.75-22.5,24-37.5,39s-53,38.76-64.5,89c-12,52.33-51.67,45.42-68.67,111.42s0,132.25-50.66,214.58c-25.32,41.13-81.25,65.88-111.07,76.65,34.8-1.68,108.46-10,154.49-49.59,56.6-48.66,68.75-97.7,78.52-137.11,8.62-34.76,16.06-64.78,51.71-78.54,15.2-5.86,33.4-3,52.62,8.34a126.25,126.25,0,0,1,14.65,10.14l0-.09s9.33,8.33,32.38,10.2c19.43,1.58,36.91-8.18,39.62-9.77a339.72,339.72,0,0,0,42.43-42.2c16.74-19.87,38.46-50.21,44-58Zm-171.5-26c-28.57-11.81,9-54,21-49.5S1702,1016.41,1674.43,1005Zm45-107.13c-25.1,0-52.93-22.48-46.59-24.91s25.83,12.91,46.59,12.91c19.84,0,43.57-10,47.94-6.34S1742.07,897.89,1719.43,897.89Z" transform="translate(-2 1.95)"/><path class="cls-2" d="M1777.5,1672.41s.5,32.67-36.5,32.67c-58.83,0-32-189.67-59-291.67-19.16-72.4-48.15-101-63.36-111.45a356.37,356.37,0,0,1-31.14,33.88c-9.92,9.43-18,16.62-24.18,22,14.63,5.68,37.35,20.85,50.18,61.28,20,63,19.94,86.92,32.1,183.23,12.34,97.67,26.4,147,95.4,147s68.5-76.9,68.5-76.9Z" transform="translate(-2 1.95)"/><path class="cls-2" d="M1628.14,1126a60.4,60.4,0,0,0-14.56,7.92,288.39,288.39,0,0,1,30.85,19.67,181.5,181.5,0,0,1,29.09,27c6.17-14.58,10.65-26.74,13.55-35.09C1676.54,1136.49,1650.61,1117.35,1628.14,1126Z" transform="translate(-2 1.95)"/><path class="cls-2" d="M1614.66,1287.53a6,6,0,0,1,1.45-1.39c7.33-10.45,19.42-29,33.89-56.12,7-13,13-25.55,18.11-37-3.79-5-13.9-17.09-30.88-29.83-12.56-9.42-27.9-18-32.71-20.55-10.74,13.16-15.25,31.36-20.76,53.58-10.18,41.07-22.85,92.18-82.35,143.33-18.86,16.22-54.3,37.66-116,47.74a406.49,406.49,0,0,1-45.29,4.76c23.59,5.24,65,11,111.37,1.67s74.35-23.54,87.92-32.1a5.64,5.64,0,0,1,.79-.66c.13-.09,13-9.14,39-33.83A336.61,336.61,0,0,0,1614.66,1287.53Z" transform="translate(-2 1.95)"/></g><g id="Top"><rect class="cls-2" x="1791.5" y="734.86" width="738" height="45" rx="1.71" ry="1.71"/><rect class="cls-2" x="1836.5" y="677.86" width="648" height="45" rx="1.72" ry="1.72"/><rect class="cls-2" x="1886" y="620.86" width="549" height="45" rx="1.73" ry="1.73"/><rect class="cls-2" x="1935.5" y="563.86" width="450" height="45" rx="1.68" ry="1.68"/><rect class="cls-2" x="1985" y="506.86" width="351" height="45" rx="1.72" ry="1.72"/><rect class="cls-2" x="2039" y="449.86" width="243" height="45" rx="1.64" ry="1.64"/><rect class="cls-2" x="2088.5" y="392.86" width="144" height="45" rx="1.48" ry="1.48"/><rect class="cls-2" x="2138" y="344.86" width="45" height="36" rx="1.71" ry="1.71"/><rect class="cls-2" x="2147" y="314.86" width="27" height="18" rx="1.52" ry="1.52"/><rect class="cls-2" x="2147" y="821.86" width="27" height="18" rx="1.44" ry="1.44"/><rect class="cls-2" x="2106.5" y="791.86" width="108" height="18" rx="1.69" ry="1.69"/></g></g></svg>